<?xml version="1.0" encoding="UTF-8"?>
<svg width="21px" height="24px" viewBox="0 0 21 24" version="1.1" xmlns="http://www.w3.org/2000/svg" xmlns:xlink="http://www.w3.org/1999/xlink">
    <!-- Generator: Sketch 55 (78076) - https://sketchapp.com -->
    <title>生态</title>
    <desc>Created with Sketch.</desc>
    <g id="Page-1" stroke="none" stroke-width="1" fill="none" fill-rule="evenodd" opacity="0.503162202">
        <g id="首页" transform="translate(-131.000000, -964.000000)" fill="#979797" fill-rule="nonzero">
            <g id="Navbar" transform="translate(0.000000, 951.000000)">
                <path d="M141.012744,36.393331 C140.899023,36.393331 140.747396,36.3554243 140.633676,36.2796107 L131.384425,30.8589432 C131.156985,30.7073162 131.005358,30.4798756 131.005358,30.2145282 L131.005358,19.3731932 C131.005358,19.1078458 131.156985,18.8424984 131.384425,18.7287782 L140.633676,13.3081106 C140.861117,13.1564836 141.164371,13.1564836 141.391811,13.3081106 L150.641062,18.7287782 C150.868503,18.8804052 151.02013,19.1078458 151.02013,19.3731932 L151.02013,30.2145282 C151.02013,30.4798756 150.868503,30.7452229 150.641062,30.8589432 L141.391811,36.2796107 C141.278091,36.3554243 141.164371,36.393331 141.012744,36.393331 Z M132.600212,29.7136894 L141.012744,34.6710741 L149.425275,29.7512453 L149.425275,19.874032 L141.012744,14.9166473 L132.600212,19.874032 L132.600212,29.7136894 Z M140.007669,25.2278014 L134.715591,22.1693926 C134.242286,21.9064453 134.100142,21.2904894 134.395188,20.7987466 C134.686751,20.3128091 135.248796,20.1457147 135.721279,20.4082735 L140.98782,23.4861842 L146.352968,20.4055771 C146.827396,20.1420061 147.434677,20.317798 147.683562,20.8155672 C147.934926,21.3182959 147.812615,21.9145651 147.357001,22.1676553 L142.02394,25.2298382 L142.02394,31.4275447 C142.02394,31.9525667 141.562833,32.3977733 141.015805,32.3977733 C140.456871,32.3977733 140.007669,31.9795509 140.007669,31.4275447 L140.007669,25.2278014 Z" id="生态"></path>
            </g>
        </g>
    </g>
</svg>