<?xml version="1.0" encoding="UTF-8"?>
<svg width="22px" height="19px" viewBox="0 0 22 19" version="1.1" xmlns="http://www.w3.org/2000/svg" xmlns:xlink="http://www.w3.org/1999/xlink">
    <!-- Generator: Sketch 55 (78076) - https://sketchapp.com -->
    <title>社区</title>
    <desc>Created with Sketch.</desc>
    <g id="Page-1" stroke="none" stroke-width="1" fill="none" fill-rule="evenodd" opacity="0.503162202">
        <g id="首页" transform="translate(-222.000000, -966.000000)" fill="#979797" fill-rule="nonzero">
            <g id="Navbar" transform="translate(0.000000, 951.000000)">
                <path d="M241.560386,15.6995117 C242.494659,15.6995117 243.247267,16.4521205 243.247267,17.3863935 L243.247267,30.1028876 C243.247267,31.0371607 242.494659,31.7897695 241.560386,31.7897695 L235.228091,31.7897695 L233.37252,33.6453396 C233.190856,33.8270038 232.970264,33.9178359 232.72372,33.9178359 C232.490151,33.9178359 232.256583,33.8140277 232.087895,33.6453396 L230.232325,31.7897695 L223.913006,31.7897695 C222.978733,31.7897695 222.226124,31.0371607 222.226124,30.1028876 L222.226124,17.3863935 C222.226124,16.4521205 222.978733,15.6995117 223.913006,15.6995117 L241.560386,15.6995117 Z M240.795769,30.1397533 C241.25798,30.1397533 241.625379,29.7723543 241.625379,29.3101428 L241.625379,18.1795483 C241.625379,17.7173367 241.25798,17.3499378 240.795769,17.3499378 L224.677623,17.3499378 C224.215411,17.3499378 223.848012,17.7173367 223.848012,18.1795483 L223.848012,29.3101428 C223.848012,29.7723543 224.215411,30.1397533 224.677623,30.1397533 L230.840482,30.1397533 L232.653735,31.9202691 C232.701141,31.9676754 232.77225,31.9676754 232.819657,31.9202691 L234.548809,30.1397533 L240.795769,30.1397533 Z M228.749139,24.2155977 C228.178781,24.2155977 227.724859,23.7616756 227.724859,23.1913174 L227.724859,21.0294485 C227.724859,20.4590903 228.178781,20.0051682 228.749139,20.0051682 C229.319497,20.0051682 229.773419,20.4590903 229.773419,21.0294485 L229.773419,23.1913174 C229.773419,23.7616756 229.319497,24.2155977 228.749139,24.2155977 Z M236.856147,24.2155977 C236.285789,24.2155977 235.831867,23.7616756 235.831867,23.1913174 L235.831867,21.0294485 C235.831867,20.4590903 236.285789,20.0051682 236.856147,20.0051682 C237.426505,20.0051682 237.880427,20.4590903 237.880427,21.0294485 L237.880427,23.1913174 C237.880427,23.7616756 237.426505,24.2155977 236.856147,24.2155977 Z M237.386455,26.1137338 C237.894691,25.8087404 238.548202,25.9777519 238.774521,26.4394577 C239.085359,26.9229828 238.926564,27.5475764 238.43775,27.8614162 C238.070533,28.0817467 237.649217,28.2743481 237.173312,28.4409147 C235.940341,28.8712914 234.401026,29.1069617 232.824262,29.1069617 C231.183059,29.1069617 229.613241,28.8656803 228.372046,28.4132315 C227.826401,28.207099 227.361316,27.9775763 226.969485,27.7118818 C226.514162,27.3866506 226.402011,26.7749209 226.720264,26.2814092 C227.045495,25.8260854 227.657225,25.713935 228.146715,26.0293367 C228.360246,26.1795989 228.667057,26.327406 229.08721,26.4849849 C230.09079,26.8526329 231.424274,27.058401 232.824262,27.058401 C234.200665,27.058401 235.506311,26.8638864 236.499493,26.5163087 C236.875476,26.3805373 237.16777,26.2483088 237.386455,26.1137338 Z" id="社区"></path>
            </g>
        </g>
    </g>
</svg>