<?xml version="1.0" encoding="UTF-8"?>
<svg width="21px" height="23px" viewBox="0 0 21 23" version="1.1" xmlns="http://www.w3.org/2000/svg" xmlns:xlink="http://www.w3.org/1999/xlink">
    <!-- Generator: Sketch 55 (78076) - https://sketchapp.com -->
    <title>设置</title>
    <desc>Created with Sketch.</desc>
    <g id="Page-1" stroke="none" stroke-width="1" fill="none" fill-rule="evenodd" opacity="0.503162202">
        <g id="首页" transform="translate(-315.000000, -965.000000)" fill="#979797" fill-rule="nonzero">
            <g id="Navbar" transform="translate(0.000000, 951.000000)">
                <path d="M333.247756,18.3750178 C334.34411,19.0078303 335.026402,20.190122 335.029006,21.455747 L335.029006,28.8750178 C335.026402,30.1458511 334.349318,31.3177261 333.25036,31.955747 L326.823277,35.6640803 C325.721714,36.299497 324.367547,36.299497 323.265985,35.6640803 L316.838902,31.955747 C315.739943,31.3229345 315.060256,30.143247 315.060256,28.8750178 L315.060256,21.455747 C315.06286,20.1849136 315.739943,19.0130386 316.838902,18.3750178 L323.263381,14.6666845 C324.364943,14.033872 325.71911,14.033872 326.820672,14.6666845 L333.247756,18.3750178 Z M333.466696,28.8535252 L333.464151,28.8535252 L333.464151,21.4771948 C333.464151,20.7520296 333.077397,20.0802975 332.44892,19.7189871 L326.057288,16.0295497 C325.428811,15.6656948 324.655302,15.6656948 324.026825,16.0295497 L317.635193,19.7189871 C317.009261,20.0802975 316.619961,20.754574 316.619961,21.4771948 L316.619961,28.8509807 C316.61951,29.5771228 317.006524,30.2483347 317.635193,30.6117329 L324.026825,34.3011703 C324.657846,34.6624807 325.428811,34.6624807 326.057288,34.3011703 L332.451464,30.6142774 C333.077397,30.2529669 333.466696,29.576146 333.466696,28.8535252 Z M325.060256,21.0547053 C327.331089,21.0547053 329.174839,22.8958511 329.174839,25.1666845 C329.174839,27.4375178 327.331089,29.2812678 325.060256,29.2812678 C322.789422,29.2812678 320.945672,27.4375178 320.945672,25.1666845 C320.948277,22.8958511 322.789422,21.0547053 325.060256,21.0547053 Z M325.060256,27.311888 C326.244375,27.311888 327.204784,26.3514789 327.202855,25.1692886 C327.202855,23.9890269 326.242446,23.0266893 325.060256,23.0266893 C323.879994,23.0266893 322.917657,23.9870984 322.917657,25.1692886 C322.917657,26.3514789 323.876137,27.3099594 325.060256,27.311888 Z" id="设置"></path>
            </g>
        </g>
    </g>
</svg>