<?xml version="1.0" encoding="UTF-8"?>
<svg width="23px" height="18px" viewBox="0 0 23 18" version="1.1" xmlns="http://www.w3.org/2000/svg" xmlns:xlink="http://www.w3.org/1999/xlink">
    <!-- Generator: Sketch 55 (78076) - https://sketchapp.com -->
    <title>钱包</title>
    <desc>Created with Sketch.</desc>
    <g id="Page-1" stroke="none" stroke-width="1" fill="none" fill-rule="evenodd">
        <g id="首页" transform="translate(-39.000000, -967.000000)" fill="#FFFFFF" fill-rule="nonzero">
            <g id="Navbar" transform="translate(0.000000, 951.000000)">
                <path d="M57.3330339,29.9903269 C57.3330339,29.5484991 57.6912061,29.1903269 58.1330339,29.1903269 C58.5748617,29.1903269 58.9330339,29.5484991 58.9330339,29.9903269 L58.9330339,30.9849136 C58.9330339,32.5313109 57.6794312,33.7849136 56.1330339,33.7849136 L42.1327337,33.7849136 C40.5863364,33.7849136 39.3327337,32.5313109 39.3327337,30.9849136 L39.3327337,18.9849136 C39.3327337,17.4385164 40.5863364,16.1849136 42.1327337,16.1849136 L56.1330339,16.1849136 C57.6794312,16.1849136 58.9330339,17.4385164 58.9330339,18.9849136 L58.9330339,19.9765032 C58.9330339,20.418331 58.5748617,20.7765032 58.1330339,20.7765032 C57.6912061,20.7765032 57.3330339,20.418331 57.3330339,19.9765032 L57.3330339,18.9849136 C57.3330339,18.3221719 56.7957756,17.7849136 56.1330339,17.7849136 L42.1327337,17.7849136 C41.469992,17.7849136 40.9327337,18.3221719 40.9327337,18.9849136 L40.9327337,30.9849136 C40.9327337,31.6476553 41.469992,32.1849136 42.1327337,32.1849136 L56.1330339,32.1849136 C56.7957756,32.1849136 57.3330339,31.6476553 57.3330339,30.9849136 L57.3330339,29.9903269 Z M57.902638,25.9849136 C57.3503533,25.9849136 56.902638,25.5371984 56.902638,24.9849136 C56.902638,24.4326289 57.3503533,23.9849136 57.902638,23.9849136 C58.4549228,23.9849136 58.902638,24.4326289 58.902638,24.9849136 C58.902638,25.5371984 58.4549228,25.9849136 57.902638,25.9849136 Z M51.6135512,21.4849136 L59.6135512,21.4849136 C60.7181207,21.4849136 61.6135512,22.3803441 61.6135512,23.4849136 L61.6135512,26.4849136 C61.6135512,27.5894831 60.7181207,28.4849136 59.6135512,28.4849136 L51.6135512,28.4849136 C50.5089817,28.4849136 49.6135512,27.5894831 49.6135512,26.4849136 L49.6135512,23.4849136 C49.6135512,22.3803441 50.5089817,21.4849136 51.6135512,21.4849136 Z M51.6135512,23.4849136 L51.6135512,26.4849136 L59.6135512,26.4849136 L59.6135512,23.4849136 L51.6135512,23.4849136 Z" id="钱包"></path>
            </g>
        </g>
    </g>
</svg>